Coordinates
version=1
nRows=26
nColumns=22
inDegrees=yes

Units are S.I. units (second, meters, Newtons, ...)
If the header above contains a line with 'inDegrees', this indicates whether rotational values are in degrees (yes) or radians (no).

endheader
time	pelvis_tilt	pelvis_list	pelvis_rotation	pelvis_tx	pelvis_ty	pelvis_tz	hip_flexion_r	hip_adduction_r	hip_rotation_r	knee_angle_r	ankle_angle_r	subtalar_angle_r	hip_flexion_l	hip_adduction_l	hip_rotation_l	knee_angle_l	ankle_angle_l	subtalar_angle_l	lumbar_extension	lumbar_bending	lumbar_rotation
      1.63000000	      6.88428231	     -2.30190686	     35.48965463	      0.75738213	      0.93567377	      0.92134110	     15.21584074	     -3.66275150	     -5.25634350	    -48.96674863	      4.93022255	      5.86366250	     -2.84658598	      5.80907486	      0.87238861	    -17.48863551	     22.14920272	    -20.02072770	    -12.97582708	      5.15542803	    -10.66522773
      1.64000000	      7.06556001	     -2.21847092	     36.80169316	      0.76398321	      0.93607335	      0.91497748	     15.89622846	     -3.67596472	     -5.48713233	    -46.64788577	      5.34665534	      5.86228573	     -4.05615048	      5.59901246	      1.94893929	    -16.73787549	     22.14751693	    -19.73388656	    -13.09134125	      5.27658301	    -11.07242955
      1.65000000	      7.23218538	     -2.09909408	     38.08869578	      0.77060583	      0.93619096	      0.90862545	     16.46927445	     -3.72598779	     -5.78401020	    -44.14212483	      5.65550230	      6.03332878	     -5.22665308	      5.39222306	      3.00817893	    -16.07991666	     22.21375014	    -19.49582940	    -13.22034561	      5.34852768	    -11.46808417
      1.66000000	      7.38607592	     -1.94921273	     39.34174876	      0.77725040	      0.93601815	      0.90227746	     16.93756269	     -3.80638413	     -6.16472614	    -41.46818015	      5.87510612	      6.37400379	     -6.35363471	      5.18966564	      4.04080700	    -15.52418259	     22.36098291	    -19.31311513	    -13.36559025	      5.38310655	    -11.85352672
      1.67000000	      7.52557096	     -1.77762112	     40.56318665	      0.78393616	      0.93554086	      0.89594112	     17.31296992	     -3.89914016	     -6.62875265	    -38.65651018	      6.02357170	      6.88248252	     -7.42480363	      4.98703481	      5.05103286	    -15.08644852	     22.60185761	    -19.18602796	    -13.51747419	      5.38184699	    -12.21640499
      1.68000000	      7.64852960	     -1.59752280	     41.74059670	      0.79067487	      0.93474843	      0.88962683	     17.61537561	     -3.98763514	     -7.18258591	    -35.73882826	      6.11705024	      7.55365621	     -8.42770375	      4.78175589	      6.02959556	    -14.77210135	     22.94797503	    -19.11131001	    -13.66768472	      5.35583866	    -12.55220148
      1.69000000	      7.75582955	     -1.41359463	     42.86815865	      0.79747785	      0.93364467	      0.88335460	     17.86045679	     -4.04982148	     -7.79056187	    -32.75656831	      6.16490727	      8.36635493	     -9.35461429	      4.57399628	      6.96827300	    -14.59342651	     23.39599847	    -19.07724586	    -13.81649558	      5.30592771	    -12.86359399
      1.70000000	      7.84888053	     -1.23797278	     43.93844186	      0.80435209	      0.93223231	      0.87715050	     18.07146055	     -4.06320906	     -8.43087008	    -29.75421180	      6.17821476	      9.31687961	    -10.19013931	      4.36025748	      7.86797289	    -14.56622883	     23.95240410	    -19.07350727	    -13.95930174	      5.23888567	    -13.12064686
      1.71000000	      7.93418921	     -1.07453631	     44.93796376	      0.81133093	      0.93054190	      0.87102321	     18.26116395	     -4.00590859	     -9.05761762	    -26.78128068	      6.16064376	     10.37650755	    -10.94720430	      4.13806051	      8.71066794	    -14.67061314	     24.59608904	    -19.08662994	    -14.09910783	      5.16122702	    -13.33473491
      1.72000000	      8.01111607	     -0.92948307	     45.86023041	      0.81842071	      0.92858656	      0.86498722	     18.45352907	     -3.86624286	     -9.62073830	    -23.89226137	      6.11747155	     11.51564716	    -11.61473954	      3.91061609	      9.48609220	    -14.91924802	     25.31973505	    -19.10685535	    -14.23194299	      5.07391301	    -13.48912823
      1.73000000	      8.08285584	     -0.80793535	     46.69623504	      0.82564118	      0.92639576	      0.85904206	     18.66744281	     -3.63488386	    -10.06478423	    -21.14787723	      6.05332481	     12.70609108	    -12.19705270	      3.67837878	     10.18150998	    -15.30213419	     26.10843610	    -19.12769537	    -14.35655527	      4.98305956	    -13.57985857
      1.74000000	      8.16087443	     -0.70631782	     47.45162295	      0.83299152	      0.92402473	      0.85316386	     18.89926465	     -3.31248730	    -10.35713524	    -18.59803128	      5.96748315	     13.86915018	    -12.70881897	      3.43885993	     10.78502335	    -15.81476950	     26.93017381	    -19.14141432	    -14.48344787	      4.89662666	    -13.61583797
      1.75000000	      8.25327093	     -0.61880866	     48.11856295	      0.84049269	      0.92153081	      0.84731601	     19.14527834	     -2.90419149	    -10.46119922	    -16.29258941	      5.85739267	     15.00742062	    -13.17123645	      3.19478519	     11.27226331	    -16.44130406	     27.75321578	    -19.15593267	    -14.61953358	      4.82401054	    -13.60928026
      1.76000000	      8.35829663	     -0.55701641	     48.69985051	      0.84816008	      0.91894244	      0.84145187	     19.42477919	     -2.41621257	    -10.35464169	    -14.29014806	      5.74612177	     16.07448726	    -13.59941285	      2.94300024	     11.67370071	    -17.13876487	     28.56784327	    -19.16015362	    -14.74563607	      4.77122651	    -13.52441830
      1.77000000	      8.48224960	     -0.50989710	     49.20849695	      0.85599657	      0.91632836	      0.83550609	     19.72181604	     -1.86894361	    -10.05789921	    -12.62751079	      5.64099068	     17.02253141	    -14.02285014	      2.68473311	     11.98838344	    -17.88039919	     29.35448584	    -19.14803360	    -14.86787076	      4.74157757	    -13.39022655
      1.78000000	      8.64238190	     -0.46670016	     49.66492723	      0.86397932	      0.91376862	      0.82941519	     19.99856656	     -1.27119545	     -9.59843190	    -11.30731774	      5.52672552	     17.75992323	    -14.45016168	      2.40797723	     12.16277055	    -18.68967156	     30.05325010	    -19.12930949	    -15.00391117	      4.75427705	    -13.25475156
      1.79000000	      8.82382452	     -0.45459496	     50.08192137	      0.87212748	      0.91123984	      0.82312278	     20.29580611	     -0.63118287	     -9.03109137	    -10.37152816	      5.43125076	     18.08171809	    -14.86040834	      2.10207702	     12.21532827	    -19.54952122	     30.71918918	    -19.11690008	    -15.10545141	      4.81986766	    -13.10654519
      1.80000000	      9.04689112	     -0.42177419	     50.46313127	      0.88044309	      0.90889733	      0.81656248	     20.52777664	      0.03124658	     -8.33554915	     -9.78118965	      5.32187039	     18.42939269	    -15.33818211	      1.78310940	     12.16201541	    -20.40762675	     31.20176151	    -19.07360642	    -15.22921002	      4.92020701	    -12.96216625
      1.81000000	      9.28958662	     -0.39920261	     50.84731153	      0.88890636	      0.90668890	      0.80967876	     20.73998925	      0.70212154	     -7.56768090	     -9.55440867	      5.22654800	     18.59417956	    -15.83528302	      1.43342734	     12.02368074	    -21.27294862	     31.55714395	    -19.00121056	    -15.31831621	      5.06900625	    -12.86074384
      1.82000000	      9.55934398	     -0.36721659	     51.24081920	      0.89751511	      0.90468011	      0.80244088	     20.89555180	      1.37364381	     -6.75825841	     -9.65275979	      5.06256497	     18.56654429	    -16.36908313	      1.05291244	     11.78500781	    -22.14756559	     31.72304538	    -18.80481582	    -15.39602686	      5.25759493	    -12.78664223
      1.83000000	      9.83133119	     -0.36506490	     51.66119406	      0.90628052	      0.90279983	      0.79483624	     21.04198451	      2.04891076	     -5.92575843	    -10.05189488	      4.86711920	     18.25256316	    -16.87420950	      0.63122986	     11.48821900	    -23.06042234	     31.75745366	    -18.55593348	    -15.39875898	      5.49229555	    -12.73881018
      1.84000000	     10.09960855	     -0.37252924	     52.13742217	      0.91516380	      0.90108337	      0.78683283	     21.15986994	      2.70058938	     -5.08967325	    -10.71560436	      4.61736504	     17.66977590	    -17.35585335	      0.16904061	     11.14736605	    -24.00688355	     31.58177304	    -18.17294856	    -15.33783664	      5.75961780	    -12.77826289
      1.85000000	     10.36121091	     -0.40220749	     52.68118829	      0.92413975	      0.89952239	      0.77842317	     21.26645867	      3.32952831	     -4.29782403	    -11.61575372	      4.29509123	     16.92088157	    -17.78424146	     -0.34138687	     10.80223322	    -25.00799650	     31.15185861	    -17.70002679	    -15.19943934	      6.06532358	    -12.86840576
      1.86000000	     10.60915315	     -0.44031923	     53.28143447	      0.93317941	      0.89812407	      0.76970046	     21.35403109	      3.93036000	     -3.48768845	    -12.69845613	      3.76190025	     16.16181091	    -18.13338326	     -0.88677965	     10.44536330	    -26.10724329	     30.55771400	    -17.21597588	    -15.00689982	      6.38171998	    -13.00182647
      1.87000000	     10.84674071	     -0.48220374	     53.98020361	      0.94223420	      0.89691621	      0.76053940	     21.43599777	      4.47452551	     -2.83086848	    -13.98238808	      3.26562419	     15.13171034	    -18.42041894	     -1.48107531	     10.15441932	    -27.25960916	     29.57648292	    -16.42769319	    -14.74703148	      6.72779876	    -13.21893745
      1.88000000	     11.07081193	     -0.52443876	     54.74489267	      0.95126673	      0.89589648	      0.75111923	     21.50589733	      4.97585607	     -2.23568602	    -15.39042637	      2.62005817	     14.14520022	    -18.59007706	     -2.10572801	      9.91607391	    -28.54956806	     28.33771621	    -15.59530105	    -14.45208484	      7.07467041	    -13.46368154
